<?xml version="1.0" encoding="utf-8"?>
<svg preserveAspectRatio="none slice" width="270" height="90" viewBox="0 0 270 90" xmlns="http://www.w3.org/2000/svg"
     xmlns:xlink="http://www.w3.org/1999/xlink">
    <svg id="familybtncolor" width="19" height="19" viewBox="0 0 19 19" x="0" y="0" xmlns="http://www.w3.org/2000/svg">
        <defs>
            <linearGradient id="da" x1=".75" y1=".933" x2=".25" y2=".067" gradientUnits="objectBoundingBox">
                <stop offset="0" stop-color="#00ab4e"/>
                <stop offset="1" stop-color="#cbdb2a"/>
            </linearGradient>
        </defs>
        <path data-name="패스 106"
              d="M1900.62 192.059a9.015 9.015 0 109.017 9.015 9.016 9.016 0 00-9.017-9.015zM1904 200l-3.564 3.563a1 1 0 01-1.414 0l-1.78-1.783a1 1 0 011.414-1.416l1.073 1.073 2.856-2.854A1 1 0 011904 200z"
              transform="translate(-1891.604 -192.059)" fill="url(#da)"/>
    </svg>
    <svg id="familybtnwhite" width="19" height="19" viewBox="0 0 19 19" x="30" y="0"
         xmlns="http://www.w3.org/2000/svg">
        <path data-name="패스 133"
              d="M9.016.004a9.015 9.015 0 109.016 9.015A9.016 9.016 0 009.016.004zm3.38 7.942l-3.564 3.558a1 1 0 01-1.414 0l-1.78-1.782a1 1 0 011.414-1.417l1.072 1.074 2.856-2.854a1 1 0 111.416 1.415z"
              fill="#fff"/>
    </svg>
    <svg id="searchblack" width="20" height="20" viewBox="0 0 20 20" x="60" y="0"
         xmlns="http://www.w3.org/2000/svg">
        <path data-name="합치기 9"
              d="M13.555 14.968A8.378 8.378 0 118.38.001v2a6.377 6.377 0 106.378 6.377A6.383 6.383 0 008.38 2.001v-2a8.377 8.377 0 016.59 13.553l3.341 3.341-1.415 1.415z"/>
    </svg>
    <svg id="searchwhite" width="20" height="20" viewBox="0 0 20 20" x="90" y="0" xmlns="http://www.w3.org/2000/svg">
        <path data-name="합치기 26"
              d="M13.557 14.969A8.379 8.379 0 118.382 0v2a6.378 6.378 0 106.375 6.378 6.383 6.383 0 00-6.379-6.376v-2a8.379 8.379 0 016.59 13.554l3.341 3.341-1.416 1.415z"
              fill="#fff"/>
    </svg>
    <svg id="menublack" width="25" height="13" viewBox="0 0 25 13" x="120" y="0" xmlns="http://www.w3.org/2000/svg">
        <path data-name="합치기 10" d="M7 12.791v-2h17.858v2zM0 2V0h24.858v2z"/>
    </svg>
    <svg id="menuwhite" width="25" height="13" viewBox="0 0 25 13" x="150" y="0" xmlns="http://www.w3.org/2000/svg">
        <path data-name="합치기 27" d="M7 12.791v-2h17.857v2zM0 1.999v-2h24.857v2z" fill="#fff"/>
    </svg>
    <svg id="close" width="13" height="12" viewBox="0 0 13 12" x="180" y="0" xmlns="http://www.w3.org/2000/svg">
        <path data-name="패스 118"
              d="M9.48 10.894L5.594 7.008l-3.886 3.886a1 1 0 01-1.416 0 1 1 0 010-1.414l3.887-3.887L.292 1.706a1 1 0 010-1.414 1 1 0 011.416 0l3.886 3.886L9.48.292a1 1 0 011.416 0 1 1 0 010 1.414L7.009 5.593l3.887 3.887a1 1 0 010 1.414 1 1 0 01-.708.292 1 1 0 01-.708-.292z"
              fill="#4d4d4d"/>
    </svg>
    <svg id="closeblack" width="13" height="12" viewBox="0 0 13 12" x="240" y="30" xmlns="http://www.w3.org/2000/svg">
        <path data-name="패스 118"
              d="M9.48 10.894L5.594 7.008l-3.886 3.886a1 1 0 01-1.416 0 1 1 0 010-1.414l3.887-3.887L.292 1.706a1 1 0 010-1.414 1 1 0 011.416 0l3.886 3.886L9.48.292a1 1 0 011.416 0 1 1 0 010 1.414L7.009 5.593l3.887 3.887a1 1 0 010 1.414 1 1 0 01-.708.292 1 1 0 01-.708-.292z"
              fill="#333333"/>
    </svg>
    <svg id="star" width="24" height="23" viewBox="0 0 24 23" x="0" y="30" xmlns="http://www.w3.org/2000/svg">
        <path data-name="합치기 14"
              d="M4.152 21.729a3.1 3.1 0 01-.645-2.032 5.226 5.226 0 01.05-.715V18.953l.779.134-.779-.134.734-4.272c-.785-.779-2.888-2.858-3-2.966a3.707 3.707 0 01-1.3-2.56 2.7 2.7 0 012.232-2.494l.053-.014 4.848-.706 2.1-4.245.019-.031a2.684 2.684 0 014.964 0l.02.031 2.1 4.245 4.85.706.05.014a2.7 2.7 0 012.233 2.494 3.7 3.7 0 01-1.3 2.56l-3 2.966.736 4.295a5.109 5.109 0 01.05.719 3.1 3.1 0 01-.645 2.031 2.369 2.369 0 01-1.858.822 4.4 4.4 0 01-2.016-.566c-.15-.078-2.737-1.407-3.7-1.9l-3.705 1.9a4.389 4.389 0 01-2.016.567h-.029a2.364 2.364 0 01-1.825-.82zm13.3.031zm-11.441 0zm.023 0a3.446 3.446 0 001.413-.37 3.448 3.448 0 01-1.415.37zm11.446 0c1.131-.014 1.8-.9 1.668-2.42.126 1.519-.539 2.406-1.67 2.42zm-1.465-.37q-.105-.05-.213-.106.106.054.214.106zm-8.536-.015l.016-.007zm3.138-18.916L8.186 7.386l-5.557.807c-.867.289-1.035.62-1.045.96a2.2 2.2 0 00.817 1.427c.153.148 3.3 3.262 3.3 3.264l.293.29-.871 5.083a3.6 3.6 0 00-.033.479 1.553 1.553 0 00.275 1.015.774.774 0 00.646.258 2.886 2.886 0 001.282-.385c.21-.11 4.073-2.094 4.078-2.1l.362-.185.36.185s3.868 1.987 4.078 2.1a2.872 2.872 0 001.282.383.779.779 0 00.648-.257 1.574 1.574 0 00.274-1.014 3.722 3.722 0 00-.035-.486l-.869-5.078.292-.289s3.146-3.116 3.3-3.264a2.213 2.213 0 00.819-1.427c-.009-.339-.179-.672-1.047-.96l-5.557-.807-2.433-4.931c-.442-.7-.853-.879-1.112-.874h-.011c-.263.001-.67.189-1.106.879zM5.126 19.19l-.784-.1.8-4.679-.8 4.679-.007.05.007-.05zm13.192-4.783l.8 4.68-.8-4.68zM13.539 2.076l2.264 4.588 5.207.756c1.084.313 1.658.948 1.661 1.728 0-.78-.576-1.415-1.661-1.728l-5.207-.756-2.264-4.588c-1.049-1.714-2.566-1.714-3.615 0L7.66 6.664l-5.207.756c-1.084.313-1.658.948-1.66 1.728 0-.78.576-1.415 1.66-1.728l5.207-.756 2.264-4.588a1.914 1.914 0 013.615 0zm-2.262 12.953a.69.69 0 010-.973l1.641-1.64H9.431a.689.689 0 010-1.378h3.485l-1.641-1.64a.689.689 0 01.975-.973l2.816 2.813.005.007.017.019.015.015.007.01.014.019.006.006.014.022v.006l.015.022v.006l.014.022v.006l.01.022.005.009.009.02v.011l.007.018.005.014v.018l.006.013v.017l.005.017V11.858a.057.057 0 010 .018v.015l-.005.017v.016l-.006.014v.018l-.005.014-.007.017-.005.013-.008.018-.005.012-.01.021v.005a.192.192 0 01-.014.023v.009l-.014.019v.008l-.014.02-.007.008-.014.018-.01.012-.013.013a.081.081 0 01-.021.022l-2.816 2.814a.69.69 0 01-.975 0z"
              fill="#4d4d4d"/>
    </svg>
    <svg id="prev" width="9" height="12" viewBox="0 0 9 12" x="30" y="30"
         xmlns="http://www.w3.org/2000/svg">
        <path data-name="패스 100"
              d="M4.975 11.632L.44 7.096a1.5 1.5 0 010-2.121L4.975.439a1.5 1.5 0 012.121 0 1.5 1.5 0 010 2.121L3.621 6.036 7.096 9.51a1.5 1.5 0 010 2.122 1.5 1.5 0 01-1.062.44 1.5 1.5 0 01-1.06-.44z"
              fill="#8c8c8c"/>
    </svg>
    <svg id="next" width="9" height="12" viewBox="0 0 9 12" x="60" y="30"
         xmlns="http://www.w3.org/2000/svg">
        <path data-name="패스 103"
              d="M2.562 11.632l4.535-4.536a1.5 1.5 0 000-2.121L2.562.439a1.5 1.5 0 00-2.122 0 1.5 1.5 0 000 2.121l3.476 3.476L.44 9.51a1.5 1.5 0 000 2.122 1.507 1.507 0 001.063.44 1.5 1.5 0 001.06-.44z"
              fill="#8c8c8c"/>
    </svg>
    <svg id="pause" width="11" height="13" viewBox="0 0 11 13" x="90" y="30" xmlns="http://www.w3.org/2000/svg">
        <path data-name="합치기 15"
              d="M8.5 12A1.5 1.5 0 017 10.5v-9A1.5 1.5 0 018.5 0h1A1.5 1.5 0 0111 1.5v9A1.5 1.5 0 019.5 12zm-7 0A1.5 1.5 0 010 10.5v-9A1.5 1.5 0 011.5 0v.5V0h1A1.5 1.5 0 014 1.5v9A1.5 1.5 0 012.5 12z"
              fill="#8c8c8c"/>
    </svg>
    <svg id="play" width="11" height="13" viewBox="0 0 11 13" x="120" y="30" xmlns="http://www.w3.org/2000/svg">
        <path data-name="합치기 16"
              d="M.437 11.892A.844.844 0 010 11.151V.851A.851.851 0 011.3.128l8.372 5.151a.851.851 0 010 1.447L1.3 11.877a.854.854 0 01-.446.127.844.844 0 01-.417-.112z"
              fill="#8c8c8c"/>
    </svg>
    <svg id="arrowdown" width="11" height="7" viewBox="0 0 11 7" x="150" y="30"
         xmlns="http://www.w3.org/2000/svg">
        <path data-name="패스 104"
              d="M4.418 5.832L.292 1.708a1 1 0 010-1.414 1 1 0 011.414 0L5.125 3.71 8.543.294a1 1 0 011.413 0 1 1 0 010 1.414L5.832 5.832a.993.993 0 01-.707.293.984.984 0 01-.707-.293z"
              fill="#8c8c8c"/>
    </svg>
    <svg id="arrowup" width="11" height="7" viewBox="0 0 11 7" x="180" y="30"
         xmlns="http://www.w3.org/2000/svg">
        <path data-name="패스 105"
              d="M4.419.293L.293 4.417a1 1 0 000 1.414 1 1 0 001.414 0l3.419-3.418 3.418 3.416a1 1 0 001.413 0 1 1 0 000-1.414L5.833.293A1 1 0 005.126 0a.989.989 0 00-.707.293z"
              fill="#fff"/>
    </svg>
    <svg id="logocheck" width="19" height="19" viewBox="0 0 19 19" x="210" y="0" xmlns="http://www.w3.org/2000/svg">
        <path id="합치기_1" data-name="합치기 1" d="M21.657,405.12a9.3,9.3,0,0,1,9.3-9.3v2.064a7.233,7.233,0,1,0,7.233,7.232,7.238,7.238,0,0,0-7.233-7.232v-2.064a9.3,9.3,0,1,1-9.3,9.3Zm7.649,2.566-1.837-1.838v0a1.033,1.033,0,0,1,1.459-1.462l1.105,1.107,2.945-2.943a1.031,1.031,0,0,1,1.457,1.458l-3.672,3.674a1.033,1.033,0,0,1-1.457,0Z" transform="translate(-21.657 -395.824)" fill="#257832"/>
    </svg>
    <svg id="logochecksmall"  width="15" height="15" viewBox="0 0 15 15" x="210" y="30" xmlns="http://www.w3.org/2000/svg">
        <path id="합치기_1" data-name="합치기 1" d="M2612.49,289.105a7.213,7.213,0,0,1,7.212-7.214v1.6a5.612,5.612,0,1,0,5.613,5.612,5.617,5.617,0,0,0-5.613-5.612v-1.6a7.213,7.213,0,1,1-7.212,7.214Zm5.935,1.99L2617,289.669v0a.8.8,0,0,1,1.132-1.133l.857.859,2.285-2.282a.8.8,0,1,1,1.13,1.13l-2.849,2.85a.8.8,0,0,1-1.131,0Z" transform="translate(-2612.49 -281.892)" fill="#00893e"/>
    </svg>
    <svg id="logocheckwhite" width="19" height="19" viewBox="0 0 19 19" x="240" y="0" xmlns="http://www.w3.org/2000/svg">
        <path id="합치기_1" data-name="합치기 1" d="M21.657,405.12a9.3,9.3,0,0,1,9.3-9.3v2.064a7.233,7.233,0,1,0,7.233,7.232,7.238,7.238,0,0,0-7.233-7.232v-2.064a9.3,9.3,0,1,1-9.3,9.3Zm7.649,2.566-1.837-1.838v0a1.033,1.033,0,0,1,1.459-1.462l1.105,1.107,2.945-2.943a1.031,1.031,0,0,1,1.457,1.458l-3.672,3.674a1.033,1.033,0,0,1-1.457,0Z" transform="translate(-21.657 -395.824)" fill="#FFF"/>
    </svg>
    <svg id="arrowdownsmall" width="9" height="5" viewBox="0 0 9 5" x="150" y="60" xmlns="http://www.w3.org/2000/svg">
        <path id="패스_1" data-name="패스 1" d="M175.8,421.066l-3.664-3.661a.892.892,0,0,1,0-1.256h0a.888.888,0,0,1,1.256,0h0l3.035,3.035,3.035-3.034a.886.886,0,0,1,1.255,0h0a.887.887,0,0,1,0,1.256h0l-3.661,3.661a.887.887,0,0,1-.629.261h0a.878.878,0,0,1-.627-.261Z" transform="translate(-171.875 -415.888)" fill="#7a7a79"/>
    </svg>
    <svg id="arrowupsmall" width="9" height="5" viewBox="0 0 9 5" x="180" y="60" xmlns="http://www.w3.org/2000/svg">
        <path id="패스_2" data-name="패스 2" d="M270.057,519.564l-3.633,3.63a.881.881,0,0,0,0,1.245h0a.879.879,0,0,0,1.246,0h0l3.01-3.01,3.009,3.008a.875.875,0,0,0,1.244,0h0a.877.877,0,0,0,0-1.245h0l-3.631-3.63a.879.879,0,0,0-.623-.258h0a.869.869,0,0,0-.623.258Z" transform="translate(-266.167 -519.306)" fill="#fff"/>
    </svg>
</svg>