<?xml version="1.0" encoding="utf-8"?>
<!-- Generator: Adobe Illustrator 26.2.1, SVG Export Plug-In . SVG Version: 6.00 Build 0)  -->
<svg version="1.1" id="Layer_1" xmlns="http://www.w3.org/2000/svg" xmlns:xlink="http://www.w3.org/1999/xlink" x="0px" y="0px"
	 viewBox="0 0 300 350" style="enable-background:new 0 0 300 350;" xml:space="preserve">
<style type="text/css">
	.st0{fill:#FFFFFF;}
</style>
<g>
	<g>
		<g>
			<path class="st0" d="M123.23,275.95l-2.02-2.43c-0.17-0.2-17.4-20.76-78.54-81.88c-17.78-17.77-30.1-37.37-36.62-58.24
				c-5.8-18.55-6.58-37.12-2.25-53.7C9.49,57.87,23.81,41.75,42.1,36.58c24.21-6.84,44.18-4.3,59.33,7.53
				c32.45,25.33,31.02,83.77,30.94,86.25l-6.38-0.2c0.02-0.57,1.39-57.7-28.51-81.03c-13.46-10.51-31.52-12.66-53.66-6.41
				C27.75,47.27,15.09,61.69,9.97,81.31c-8.89,34.08,5.02,73.64,37.21,105.82c50.5,50.48,70.85,73.03,76.87,79.91
				c43.2-35.36,72.01-65.03,93.15-86.8c21.94-22.6,35.19-36.25,48.03-39.36c21-5.1,23.37-18.1,24.07-32.11
				c0.32-6.34-2.07-6.73-7.31-7.57c-2.4-0.39-4.89-0.78-7.13-1.99c-6.43-3.47-8.06-9.95-9.49-15.66c-0.78-3.11-1.52-6.04-2.92-8.31
				c-1.53-2.48-3.63-4.92-6.6-7.68c-2.61-2.43-5.6-4.51-8.88-6.17c-5.7-2.89-12.22-4.57-19.38-4.98c-0.25,0-1.38,0.05-2.71,0.11
				c-8.17,0.36-8.48,0.37-9.46-1.65c-9.39-19.25-18.55-32.92-23.74-40.03c-1.36,8.62-3.42,24.08-3.82,40.7
				c-0.61,25.61,0.94,34.23,13.73,50.49c8.03,10.21,8.69,27.58,1.58,41.3c-6.28,12.13-17.19,18.71-29.91,18.07
				c-5.14-0.26-9.53-2.53-13.06-6.75c-13.36-15.99-10.49-57.4-9.15-70.95c-4.1,0.74-8.77,1.65-15.28,3.12l-1.4-6.22
				c8.95-2.01,14.47-3,19.79-3.91l4.26-0.73l-0.55,4.28c-0.07,0.53-6.72,53.63,7.24,70.33c2.37,2.84,5.15,4.3,8.48,4.47
				c13.87,0.69,20.94-8.86,23.92-14.63c5.92-11.42,5.52-26.23-0.93-34.43c-13.82-17.58-15.72-27.97-15.09-54.58
				c0.61-25.67,5.11-48.65,5.16-48.88L187.92,0l4.28,5.05c0.57,0.67,13.83,16.48,28.09,45.25c1.33-0.04,3.14-0.12,4.31-0.17
				c2.41-0.11,3.01-0.13,3.36-0.11c8.05,0.46,15.42,2.37,21.9,5.66c3.81,1.94,7.29,4.35,10.34,7.19c3.4,3.17,5.84,6.03,7.68,9
				c1.92,3.1,2.81,6.66,3.68,10.1c1.28,5.08,2.38,9.47,6.33,11.6c1.29,0.7,3.15,0.99,5.11,1.31c5.29,0.85,13.27,2.13,12.67,14.18
				c-0.76,15.17-3.67,31.86-28.94,37.99c-11.05,2.68-24.54,16.58-44.96,37.61c-21.64,22.29-51.27,52.81-96.11,89.27L123.23,275.95z
				 M221.15,52.06c0,0,0,0.01,0,0.01C221.15,52.07,221.15,52.06,221.15,52.06z"/>
		</g>
		<g>
			<ellipse class="st0" cx="232.17" cy="87.68" rx="8.18" ry="8.18"/>
		</g>
	</g>
	<g>
		<g>
			<path class="st0" d="M0,349.94v-52.62h23.7c3.03,0,5.61,0.29,7.73,0.87c2.12,0.58,3.84,1.49,5.15,2.71
				c1.31,1.23,2.27,2.78,2.87,4.68c0.6,1.89,0.9,4.15,0.9,6.76v5.3c0,4.99-1.45,8.55-4.33,10.69c-2.89,2.14-7.43,3.21-13.63,3.21
				H10.85v18.39H0z M22.7,322.32c2.54,0,4.34-0.44,5.43-1.31c1.08-0.87,1.62-2.31,1.62-4.3v-4.55c0-2-0.54-3.43-1.62-4.3
				c-1.08-0.87-2.89-1.31-5.43-1.31H10.85v15.77H22.7z"/>
			<path class="st0" d="M45.22,324.07c0-2.08,0.19-3.87,0.56-5.36c0.37-1.5,1-2.73,1.87-3.71c0.87-0.98,2.02-1.69,3.43-2.15
				c1.41-0.46,3.16-0.69,5.24-0.69h15.72c2.08,0,3.82,0.21,5.24,0.62c1.41,0.42,2.56,1.06,3.43,1.93c0.87,0.87,1.52,1.99,1.93,3.37
				c0.42,1.37,0.66,3.01,0.75,4.92v4.24c0,5.61-3.14,8.42-9.42,8.42H56v3.3c0,0.79,0.1,1.44,0.31,1.96c0.21,0.52,0.6,0.9,1.18,1.15
				h24.64v7.85H54.57c-3.24,0-5.61-0.74-7.11-2.21c-1.5-1.48-2.24-3.42-2.24-5.83V324.07z M60.06,320.32
				c-1.33,0-2.34,0.16-3.02,0.47c-0.69,0.31-1.03,1.13-1.03,2.46v4.24h13.72c1.08,0,1.84-0.22,2.28-0.66
				c0.44-0.44,0.65-1.17,0.65-2.21v-1.37c0-1.08-0.22-1.84-0.65-2.28c-0.44-0.44-1.2-0.65-2.28-0.65H60.06z"/>
			<path class="st0" d="M87.44,312.78h8.48v-13.4h10.73v13.4h12.97v9.1h-12.97v15.46c0,1.21,0.25,2.09,0.75,2.65
				c0.5,0.56,1.37,0.84,2.62,0.84h9.6v9.1h-12.29c-2.25,0-4.11-0.25-5.58-0.75c-1.48-0.5-2.64-1.26-3.49-2.28
				c-0.85-1.02-1.46-2.29-1.81-3.8c-0.35-1.52-0.53-3.31-0.53-5.39v-15.83h-8.48V312.78z"/>
			<path class="st0" d="M135.65,334.48c0,2.29,0.49,3.91,1.47,4.86c0.98,0.96,2.75,1.43,5.33,1.43h21.33v9.16h-23.95
				c-2.7,0-5-0.24-6.89-0.72c-1.89-0.48-3.44-1.25-4.65-2.31c-1.21-1.06-2.09-2.45-2.65-4.18s-0.84-3.81-0.84-6.26v-25.62
				c0-2.45,0.28-4.54,0.84-6.27c0.56-1.72,1.43-3.13,2.62-4.21c1.18-1.08,2.72-1.86,4.62-2.34c1.89-0.48,4.19-0.72,6.89-0.72h23.39
				v9.23h-20.71c-2.58,0-4.36,0.48-5.33,1.43c-0.98,0.96-1.47,2.58-1.47,4.86V334.48z"/>
			<path class="st0" d="M167.58,334.6c0-2.62,0.76-4.65,2.28-6.08c1.52-1.43,3.77-2.15,6.77-2.15h17.28v-2.8
				c0-1.12-0.24-1.94-0.72-2.46c-0.48-0.52-1.26-0.78-2.34-0.78h-21.58v-8.17h24.32c2.12,0,3.89,0.24,5.3,0.72
				c1.41,0.48,2.55,1.21,3.4,2.18c0.85,0.98,1.45,2.19,1.81,3.65c0.35,1.46,0.53,3.14,0.53,5.05v26.18h-28
				c-2.99,0-5.25-0.72-6.77-2.15c-1.52-1.43-2.28-3.46-2.28-6.08V334.6z M178.37,337.72c0,0.83,0.02,1.51,0.06,2.03
				c0.04,0.52,0.17,0.93,0.37,1.22c0.21,0.29,0.52,0.5,0.94,0.62c0.42,0.12,1.02,0.19,1.81,0.19h12.35v-7.23h-12.35
				c-1.33,0-2.19,0.27-2.59,0.81C178.56,335.89,178.37,336.68,178.37,337.72z"/>
			<path class="st0" d="M209.92,350v-27.31c0-3.57,0.82-6.22,2.46-7.95c1.64-1.72,4.33-2.59,8.08-2.59h16.9v9.16h-13.28
				c-1.25,0-2.12,0.28-2.62,0.84c-0.5,0.56-0.75,1.44-0.75,2.65V350H209.92z"/>
			<path class="st0" d="M242.04,324.07c0-2.08,0.19-3.87,0.56-5.36s1-2.73,1.87-3.71c0.87-0.98,2.02-1.69,3.43-2.15
				c1.41-0.46,3.16-0.69,5.24-0.69h15.72c2.08,0,3.82,0.21,5.24,0.62c1.41,0.42,2.56,1.06,3.43,1.93c0.87,0.87,1.52,1.99,1.93,3.37
				c0.42,1.37,0.66,3.01,0.75,4.92v4.24c0,5.61-3.14,8.42-9.42,8.42h-17.96v3.3c0,0.79,0.1,1.44,0.31,1.96
				c0.21,0.52,0.6,0.9,1.19,1.15h24.63v7.85H251.4c-3.24,0-5.61-0.74-7.11-2.21c-1.5-1.48-2.25-3.42-2.25-5.83V324.07z
				 M256.89,320.32c-1.33,0-2.34,0.16-3.02,0.47c-0.69,0.31-1.03,1.13-1.03,2.46v4.24h13.72c1.08,0,1.84-0.22,2.28-0.66
				c0.44-0.44,0.65-1.17,0.65-2.21v-1.37c0-1.08-0.22-1.84-0.65-2.28c-0.44-0.44-1.2-0.65-2.28-0.65H256.89z"/>
		</g>
		<g>
			<g>
				<rect x="287.62" y="292.8" class="st0" width="5.4" height="19.36"/>
			</g>
			<g>
				
					<rect x="287.62" y="292.79" transform="matrix(-1.836970e-16 1 -1 -1.836970e-16 592.7914 12.1615)" class="st0" width="5.4" height="19.37"/>
			</g>
		</g>
	</g>
</g>
</svg>
