<?xml version="1.0" encoding="utf-8"?>
<!-- Generator: Adobe Illustrator 26.2.1, SVG Export Plug-In . SVG Version: 6.00 Build 0)  -->
<svg version="1.1" id="Layer_1" xmlns="http://www.w3.org/2000/svg" xmlns:xlink="http://www.w3.org/1999/xlink" x="0px" y="0px"
	 viewBox="0 0 450 841.89" style="enable-background:new 0 0 450 841.89;" xml:space="preserve">
<style type="text/css">
	.st0{fill:#F1F1F1;}
</style>
<path class="st0" d="M438.09,275.11c-2.04-16.6-11.74-14.04-11.74-14.04c-20.68-6.89-23.49-40.6-23.49-40.6
	c-14.55-49.17-10.63-65.31-32.33-82.74C484.6,114.26,421.19,31.4,421.19,31.4c4.69,42.71-40.18,73.15-76.17,90.49
	c-0.63-0.33-1.26-0.66-1.91-1C290,93.32,168.85,140.81,135.79,111.7S90.6,18.26,88.81,15.57s-0.89-13.4-3.96-14.3
	C81.79,0.38,73.36,9.7,73.11,20.04c-0.26,10.34-6.51,15.19-6.51,15.19C56,34.34,42.09,48.26,39.28,58.72
	c-2.81,10.47-15.7,15.96-29.74,21.83c-14.04,5.87-5.62,12.38-5.62,12.38c5.43,6.61,44.04,22.6,53.74,15.7
	c9.7-6.89,19.66,34.98,21.19,47.74c1.53,12.77,15.57,42.38,39.32,54.89c23.74,12.51,17.11,83.74,14.55,98.04
	c-2.55,14.3-15.83,20.43-15.83,20.43c-21.19,1.28-20.68,10.21-20.68,10.21h31.66c17.87-0.51,12.77-7.4,23.49-17.87
	s21.96-71.49,24-82.98c2.04-11.49,15.06-10.21,15.06-10.21c50.16,2.57,82.19-4.28,101.37-5.12c29.31-1.29,45.7,16.49,45.7,16.49
	c19.35,15.12,42.92,30.06,51.56,32.55c13.28,3.83,33.7,8.94,37.79,27.32c4.09,18.38,2.81,20.94-2.55,22.98s-4.34,9.96-4.34,9.96
	h18.13C459.53,334.34,440.13,291.7,438.09,275.11z"/>
</svg>
